<?xml version="1.0" encoding="UTF-8"?>
<svg id="Layer_1" xmlns="http://www.w3.org/2000/svg" version="1.1" viewBox="0 0 240.391 226.415">
  <!-- Generator: Adobe Illustrator 30.0.0, SVG Export Plug-In . SVG Version: 2.1.1 Build 123)  -->
  <g opacity=".5">
    <path d="M38.551,156.326c-.276,0-.5.224-.5.5v1c0,.276.224.5.5.5s.5-.224.5-.5v-1c0-.277-.224-.5-.5-.5Z" fill="#fff"/>
    <path d="M215.033,110.503c.005-.226.018-.45.018-.677,0-19.725-15.029-35.936-34.261-37.815-7.206-16.793-25.276-26.998-44.008-23.554-5.1.938-9.787,2.813-13.936,5.4-6.622-13.351-20.384-22.532-36.296-22.532-22.322,0-40.423,18.06-40.497,40.365-18.082,5.535-31.003,20.182-31.003,37.385,0,4.119.741,8.093,2.116,11.829,1.311,15.637,14.408,27.921,30.384,27.921h138c16.845,0,30.5-13.655,30.5-30.5,0-2.704-.355-5.325-1.017-7.822Z" fill="#fff"/>
  </g>
</svg>