<?xml version="1.0" encoding="UTF-8"?>
<svg id="Layer_1" xmlns="http://www.w3.org/2000/svg" version="1.1" viewBox="0 0 240.391 226.414">
  <!-- Generator: Adobe Illustrator 30.0.0, SVG Export Plug-In . SVG Version: 2.1.1 Build 123)  -->
  <g>
    <g>
      <path d="M168.025,16.669c-13.311-2.005-30.541-3.215-49.379-3.215-17.388,0-33.399,1.03-46.229,2.765v24.241h-35.768v93.13h167.141V40.91h-35.765v-24.241h0Z" fill="#ea8e10"/>
      <path d="M168.025,47.872v-31.104c18.291,3.174,30.136,8.172,30.136,13.814,3.104,0,5.629,2.596,5.629,5.802v11.488h-35.765Z" fill="#231f20"/>
      <path d="M72.415,47.374v-31.105c-18.291,3.175-30.136,8.173-30.136,13.815-3.105,0-5.632,2.594-5.632,5.801v11.488h35.768Z" fill="#231f20"/>
    </g>
    <path d="M213.098,132.777c-4.225-4.224-12.777-4.512-19.145-8.106-25.554-14.445-43.263-19.029-73.162-19.029-.188,0-.381.002-.568.004-.187,0-.385-.004-.569-.004-29.899,0-47.606,4.584-73.161,19.029-6.367,3.597-14.923,3.886-19.146,8.106-12.045,12.046-4.393,37.979-4.393,37.979,0,.695.555,1.248,1.241,1.248h192.052c.687,0,1.244-.553,1.244-1.248,0,0,7.655-25.934-4.392-37.979Z" fill="#f5a909"/>
    <path d="M143.329,14.193c0-2.861-9.302-9.327-23.238-9.327s-22.979,6.466-22.979,9.327" fill="#f5a909"/>
    <path d="M216.016,172.004H24.429c-.728,0-1.31.83-1.31,1.861l3.52,8.496c0,1.078.562,1.967,1.252,1.967h13.404v26.131c0,.854.625,1.549,1.394,1.549h39.246c.768,0,1.393-.694,1.393-1.549v-16.332h72.936v16.332c0,.854.619,1.549,1.404,1.549h39.844c.779,0,1.398-.694,1.398-1.549v-26.131h13.629c.699,0,1.266-.889,1.266-1.967l3.518-8.496c-.002-1.031-.594-1.861-1.307-1.861Z" fill="#231f20"/>
    <path d="M162.682,155.443c0,3.901-3.162,7.063-7.063,7.063h-70.795c-3.902,0-7.064-3.162-7.064-7.063v-26.56c0-3.907,3.162-7.069,7.064-7.069h70.795c3.901,0,7.063,3.162,7.063,7.069v26.56h0Z" fill="#12100b" stroke="#4d4947" stroke-width="6"/>
    <path d="M213.374,147.778c0,8.426-6.817,15.258-15.256,15.258s-15.248-6.83-15.248-15.258,6.838-15.255,15.248-15.255c8.438,0,15.256,6.831,15.256,15.255Z" fill="#d0d0d0" stroke="#231f20" stroke-width="4"/>
    <path d="M207.564,147.778c0,5.217-4.222,9.443-9.442,9.443s-9.439-4.228-9.439-9.443,4.232-9.441,9.439-9.441,9.442,4.227,9.442,9.441Z" fill="#fff" stroke="#231f20" stroke-width="2"/>
    <path d="M57.57,147.778c0,8.426-6.817,15.258-15.259,15.258s-15.248-6.83-15.248-15.258,6.839-15.255,15.248-15.255c8.439,0,15.259,6.831,15.259,15.255Z" fill="#d0d0d0" stroke="#231f20" stroke-width="4"/>
    <path d="M51.757,147.778c0,5.217-4.221,9.443-9.443,9.443s-9.437-4.228-9.437-9.443,4.23-9.441,9.437-9.441,9.443,4.227,9.443,9.441Z" fill="#fff" stroke="#231f20" stroke-width="2"/>
    <line x1="79.828" y1="138.493" x2="160.613" y2="138.493" fill="none" stroke="#4d4947" stroke-width="5"/>
    <line x1="79.828" y1="130.113" x2="160.613" y2="130.113" fill="none" stroke="#4d4947" stroke-width="5"/>
    <line x1="79.828" y1="146.873" x2="160.613" y2="146.873" fill="none" stroke="#4d4947" stroke-width="5"/>
    <line x1="79.828" y1="155.254" x2="160.613" y2="155.254" fill="none" stroke="#4d4947" stroke-width="5"/>
    <g>
      <path d="M115.517,91.793c0,.688-.555,1.249-1.244,1.249H43.56c-.687,0-1.246-.562-1.246-1.249v-34.426c0-.688.56-1.25,1.246-1.25h70.713c.689,0,1.244.562,1.244,1.25v34.426Z" fill="#fff"/>
      <path d="M198.12,91.793c0,.688-.556,1.249-1.242,1.249h-70.701c-.692,0-1.264-.562-1.264-1.249v-34.426c0-.688.567-1.25,1.264-1.25h70.701c.688,0,1.242.562,1.242,1.25v34.426Z" fill="#fff"/>
    </g>
    <path d="M185.607,93.131c0-9.027-9.754-15.581-18.487-15.581s-18.476,6.668-18.476,15.581" fill="none" stroke="#13110c" stroke-width="6"/>
    <g>
      <path d="M28.247,86.558c0,.682-.549,1.243-1.236,1.243H10.199c-.684,0-1.248-.562-1.248-1.243v-24.041c0-.689.564-1.243,1.248-1.243h16.811c.688,0,1.236.554,1.236,1.243v24.041Z" fill="#231f20"/>
      <path d="M18.601,87.801c0,5.763,7.994,10.417,17.886,10.417" fill="none" stroke="#13110c" stroke-width="6"/>
    </g>
    <g>
      <path d="M212.143,86.558c0,.682.565,1.243,1.241,1.243h16.812c.677,0,1.242-.562,1.242-1.243v-24.041c0-.689-.565-1.243-1.242-1.243h-16.812c-.676,0-1.241.554-1.241,1.243v24.041Z" fill="#231f20"/>
      <path d="M221.794,87.801c0,5.763-7.994,10.417-17.883,10.417" fill="none" stroke="#13110c" stroke-width="6"/>
    </g>
    <path d="M173.449,34.682c0,5.866,4.735,10.608,10.596,10.608s10.602-4.742,10.602-10.608-4.748-10.596-10.602-10.596-10.596,4.757-10.596,10.596Z" fill="#e30613" stroke="#dd1215" stroke-width=".234"/>
    <path d="M44.56,34.682c0,5.866,4.744,10.608,10.584,10.608s10.613-4.742,10.613-10.608-4.75-10.596-10.613-10.596-10.584,4.757-10.584,10.596Z" fill="#e30613" stroke="#dd1215" stroke-width=".234"/>
  </g>
  <g>
    <path d="M74.524,24.132c.953-.173,2.46-.303,3.989-.303,2.183,0,3.587.324,4.642,1.06.878.562,1.402,1.427,1.402,2.573,0,1.406-1.078,2.638-2.857,3.2v.043c1.603.346,3.484,1.492,3.484,3.654,0,1.254-.575,2.206-1.43,2.919-1.179.93-3.085,1.362-5.845,1.362-1.505,0-2.659-.086-3.389-.173l.002-14.335h0ZM76.707,30.099h1.979c2.311,0,3.663-1.038,3.663-2.443,0-1.708-1.505-2.378-3.713-2.378-1.003,0-1.58.065-1.932.13l.002,4.691h0ZM76.707,37.083c.427.065,1.054.087,1.831.087,2.258,0,4.34-.714,4.34-2.833,0-1.989-1.981-2.811-4.364-2.811h-1.807v5.557h0Z"/>
    <path d="M90.305,23.937v8.627c0,3.265,1.682,4.648,3.938,4.648,2.509,0,4.112-1.427,4.112-4.648v-8.627h2.207v8.498c0,4.476-2.732,6.313-6.395,6.313-3.462,0-6.07-1.708-6.07-6.227v-8.584h2.208Z"/>
    <path d="M104.053,36.218c.979.519,2.408.952,3.913.952,2.232,0,3.537-1.017,3.537-2.487,0-1.362-.903-2.141-3.187-2.897-2.76-.843-4.465-2.076-4.465-4.13,0-2.271,2.184-3.957,5.469-3.957,1.73,0,2.984.346,3.737.714l-.602,1.535c-.553-.26-1.683-.692-3.211-.692-2.31,0-3.187,1.189-3.187,2.184,0,1.362,1.028,2.032,3.361,2.811,2.858.951,4.312,2.14,4.312,4.281,0,2.249-1.932,4.195-5.92,4.195-1.631,0-3.411-.411-4.312-.93l.556-1.579Z"/>
    <path d="M121.889,31.959v1.405h-6.194v-1.405h6.194Z"/>
    <path d="M124.549,24.132c.953-.173,2.459-.303,3.989-.303,2.182,0,3.587.324,4.641,1.06.878.562,1.404,1.427,1.404,2.573,0,1.406-1.078,2.638-2.858,3.2v.043c1.604.346,3.485,1.492,3.485,3.654,0,1.254-.576,2.206-1.43,2.919-1.18.93-3.086,1.362-5.846,1.362-1.506,0-2.659-.086-3.388-.173l.002-14.335h0ZM126.732,30.099h1.98c2.309,0,3.663-1.038,3.663-2.443,0-1.708-1.506-2.378-3.713-2.378-1.004,0-1.58.065-1.933.13l.002,4.691h0ZM126.732,37.083c.428.065,1.055.087,1.831.087,2.258,0,4.34-.714,4.34-2.833,0-1.989-1.981-2.811-4.363-2.811h-1.808v5.557h0Z"/>
    <path d="M149.962,38.034c-.803.346-2.408.692-4.465.692-4.768,0-8.354-2.595-8.354-7.373,0-4.562,3.587-7.654,8.829-7.654,2.107,0,3.438.389,4.015.649l-.526,1.535c-.827-.346-2.007-.605-3.411-.605-3.964,0-6.598,2.184-6.598,6.011,0,3.567,2.383,5.859,6.497,5.859,1.329,0,2.685-.238,3.562-.605l.452,1.491Z"/>
    <path d="M152.698,38.51v-14.573h2.384l5.418,7.373c1.254,1.708,2.231,3.244,3.035,4.735l.051-.021c-.201-1.946-.251-3.719-.251-5.989v-6.098h2.058v14.573h-2.207l-5.368-7.394c-1.181-1.622-2.31-3.287-3.16-4.865l-.075.021c.125,1.838.176,3.589.176,6.011v6.227h-2.06Z"/>
  </g>
</svg>